Coordinates
version=1
nRows=54
nColumns=12
inDegrees=yes

Units are S.I. units (second, meters, Newtons, ...)
Angles are in degrees

endheader
time	SC_y	SC_z	SC_x	AC_y	AC_z	AC_x	GH_y	GH_z	GH_yy	EL_x	PS_y
       0.0              -17.49          34.93           81.7          49.11         -6.156          14.66          113.1          78.85          104.5          5.217          133.4
   0.01268              -17.49          34.92          81.69          49.12         -6.157          14.66          113.1          78.85          104.4          5.225          133.4
   0.02536               -17.5          34.92          81.69          49.12         -6.159          14.65          113.1          78.84          104.4          5.233          133.4
   0.03805               -17.5          34.91          81.68          49.12          -6.16          14.65          113.1          78.83          104.4          5.241          133.4
   0.05073               -17.5          34.91          81.67          49.13         -6.162          14.64          113.2          78.82          104.3          5.251          133.4
   0.06341              -17.51           34.9          81.66          49.13         -6.164          14.64          113.2          78.81          104.3           5.26          133.4
   0.07609              -17.51           34.9          81.65          49.13         -6.166          14.63          113.2          78.81          104.2          5.271          133.4
   0.08878              -17.52          34.89          81.65          49.14         -6.168          14.63          113.2          78.79          104.2          5.282          133.4
    0.1015              -17.52          34.88          81.63          49.14          -6.17          14.62          113.2          78.78          104.1          5.294          133.4
    0.1141              -17.53          34.88          81.62          49.15         -6.172          14.61          113.2          78.77          104.1          5.307          133.4
    0.1268              -17.53          34.87          81.61          49.15         -6.175           14.6          113.2          78.76          104.0          5.321          133.4
    0.1395              -17.54          34.86           81.6          49.16         -6.177           14.6          113.2          78.75          103.9          5.336          133.4
    0.1522              -17.54          34.85          81.59          49.17          -6.18          14.59          113.3          78.73          103.9          5.352          133.4
    0.1649              -17.55          34.84          81.57          49.17         -6.184          14.58          113.3          78.71          103.8          5.369          133.4
    0.1776              -17.56          34.83          81.55          49.18         -6.187          14.57          113.3           78.7          103.7          5.388          133.4
    0.1902              -17.56          34.82          81.54          49.19         -6.191          14.56          113.3          78.68          103.6          5.408          133.4
    0.2029              -17.57          34.81          81.52           49.2         -6.195          14.55          113.3          78.66          103.5          5.431          133.3
    0.2156              -17.58          34.79           81.5          49.21         -6.199          14.53          113.4          78.64          103.4          5.455          133.3
    0.2283              -17.59          34.78          81.47          49.22         -6.204          14.52          113.4          78.61          103.3          5.481          133.3
     0.241               -17.6          34.76          81.45          49.23         -6.209           14.5          113.4          78.59          103.2           5.51          133.3
    0.2536              -17.61          34.74          81.42          49.24         -6.215          14.49          113.5          78.56          103.0          5.542          133.3
    0.2663              -17.63          34.73          81.39          49.25         -6.221          14.47          113.5          78.52          102.9          5.576          133.3
     0.279              -17.64           34.7          81.36          49.27         -6.228          14.45          113.5          78.49          102.7          5.615          133.3
    0.2917              -17.66          34.68          81.32          49.28         -6.236          14.42          113.6          78.45          102.5          5.658          133.2
    0.3044              -17.68          34.65          81.28           49.3         -6.245           14.4          113.6          78.41          102.3          5.705          133.2
    0.3171               -17.7          34.62          81.24          49.32         -6.254          14.37          113.7          78.36          102.1          5.758          133.2
    0.3297              -17.72          34.59          81.18          49.35         -6.265          14.34          113.7           78.3          101.8          5.817          133.2
    0.3424              -17.74          34.55          81.13          49.37         -6.277           14.3          113.8          78.24          101.5          5.884          133.1
    0.3551              -17.77          34.51          81.06           49.4         -6.291          14.26          113.9          78.17          101.2          5.959          133.1
    0.3678              -17.81          34.46          80.99          49.44         -6.306          14.22          114.0          78.09          100.8          6.045          133.0
    0.3805              -17.84          34.41           80.9          49.47         -6.324          14.16          114.1           78.0          100.4          6.142          133.0
    0.3932              -17.89          34.35          80.81          49.52         -6.344           14.1          114.2           77.9          99.88          6.255          132.9
    0.4058              -17.93          34.27           80.7          49.57         -6.368          14.03          114.3          77.78          99.31          6.384          132.9
    0.4185              -17.99          34.19          80.57          49.63         -6.395          13.95          114.5          77.64          98.65          6.534          132.8
    0.4312              -18.06          34.09          80.42          49.69         -6.427          13.86          114.7          77.48          97.87           6.71          132.7
    0.4439              -18.14          33.98          80.24          49.77         -6.465          13.74          114.9          77.29          96.96          6.918          132.6
    0.4566              -18.23          33.84          80.02          49.87          -6.51          13.61          115.1          77.07          95.87          7.164          132.5
    0.4692              -18.34          33.68          79.77          49.99         -6.563          13.45          115.4          76.79          94.57          7.459          132.3
    0.4819              -18.48          33.48          79.46          50.12         -6.628          13.26          115.8          76.47          92.99          7.817          132.2
    0.4946              -18.64          33.23          79.09          50.29         -6.708          13.03          116.3          76.07          91.06          8.253          131.9
    0.5073              -18.85          32.93          78.62           50.5         -6.805          12.74          116.8          75.57          88.69          8.792          131.7
      0.52               -19.1          32.56          78.04          50.77         -6.927          12.37          117.5          74.95          85.72          9.464          131.3
    0.5327              -19.43          32.09          77.31          51.09         -7.081          11.92          118.4          74.18          81.99          10.31          130.9
    0.5453              -19.83          31.49          76.39          51.51         -7.277          11.34          119.5          73.19          77.24          11.39          130.4
     0.558              -20.36          30.72           75.2          52.05         -7.527           10.6          120.9          71.92          71.16          12.76          129.7
    0.5707              -21.03          29.73          73.68          52.74         -7.848          9.644          122.8           70.3          63.37          14.53          128.8
    0.5834              -21.89          28.48          71.73          53.61         -8.258          8.428          125.1          68.23          53.41          16.79          127.7
    0.5961              -22.96          26.89          69.29          54.72         -8.774          6.898          128.1          65.62          40.88          19.63          126.3
    0.6088              -24.28          24.96          66.31          56.06         -9.402          5.035          131.7          62.44          25.62          23.09          124.5
    0.6214               -25.8          22.73          62.85          57.62         -10.13          2.875          135.8          58.76          7.931           27.1          122.6
    0.6341              -27.45          20.31          59.11          59.31         -10.92         0.5364          140.3          54.77         -11.22          31.44          120.4
    0.6468               -29.1          17.89          55.37           61.0         -11.71         -1.802          144.8          50.78         -30.38          35.78          118.2
    0.6595              -30.62          15.65          51.92          62.56         -12.44         -3.962          149.0           47.1         -48.07          39.79          116.2
    0.6722              -31.93          13.73          48.94           63.9         -13.07         -5.826          152.6          43.92         -63.33          43.25          114.5
